# xmcd
#
# Track frame offsets:
#	180
#	14019
#	39527
#	58492
#	75119
#	90223
#	101464
#	123580
#	143605
#	165550
#
# Disc length: 2456
#
# Revision: 1
# Processed by: cddbd v1.5.1PL0 Copyright (c) Steve Scherf et al.
# Submitted via: ExactAudioCopy v0.95a5
# Normalized: r0:TRMNUM
#
DISCID=7409960a
DTITLE=Melanie Inabinet - By Special Request
DYEAR=1997
DGENRE=Country Christian
TTITLE0=Joy In My Heart
TTITLE1=Thank You
TTITLE2=Somebody's Praying'
TTITLE3=Heirlooms
TTITLE4=In This Very Room
TTITLE5=Unclouded Day Medley
TTITLE6=The Anchor Holds
TTITLE7=Jesus, We Crown You With Praise
TTITLE8=Holy Ground
TTITLE9=People Need The Lord
EXTD=
EXTT0=Joy in My Heart
EXTT1=Thank You
EXTT2=Somebody's Praying'
EXTT3=Heirlooms
EXTT4=In This Very Room
EXTT5=Unclouded Day Medley (I'll Fly Away)
EXTT6=The Anchor Holds
EXTT7=Jesus, We Crown You With Praise
EXTT8=Holy Ground
EXTT9=People Need The Lord
PLAYORDER=
